<svg width="84" height="28" viewBox="0 0 84 28" fill="none" xmlns="http://www.w3.org/2000/svg">
<path d="M35.947 14.4345C35.947 18.3808 32.8349 21.2888 29.0155 21.2888C25.1962 21.2888 22.084 18.3808 22.084 14.4345C22.084 10.4603 25.1962 7.58008 29.0155 7.58008C32.8349 7.58008 35.947 10.4603 35.947 14.4345ZM32.9127 14.4345C32.9127 11.9684 31.109 10.281 29.0155 10.281C26.922 10.281 25.1183 11.9684 25.1183 14.4345C25.1183 16.8758 26.922 18.5879 29.0155 18.5879C31.109 18.5879 32.9127 16.8727 32.9127 14.4345Z" fill="#EA4335"/>
<path d="M50.9002 14.4345C50.9002 18.3808 47.788 21.2888 43.9686 21.2888C40.1493 21.2888 37.0371 18.3808 37.0371 14.4345C37.0371 10.4634 40.1493 7.58008 43.9686 7.58008C47.788 7.58008 50.9002 10.4603 50.9002 14.4345ZM47.8659 14.4345C47.8659 11.9684 46.0621 10.281 43.9686 10.281C41.8752 10.281 40.0714 11.9684 40.0714 14.4345C40.0714 16.8758 41.8752 18.5879 43.9686 18.5879C46.0621 18.5879 47.8659 16.8727 47.8659 14.4345Z" fill="#FBBC05"/>
<path d="M65.2306 7.99418V20.2999C65.2306 25.3619 62.2212 27.4293 58.6636 27.4293C55.3146 27.4293 53.299 25.2074 52.5389 23.3903L55.1807 22.2994C55.6511 23.415 56.8037 24.7315 58.6605 24.7315C60.9377 24.7315 62.349 23.3377 62.349 20.714V19.7282H62.243C61.5639 20.5595 60.2555 21.2857 58.6044 21.2857C55.1495 21.2857 51.9844 18.3005 51.9844 14.4592C51.9844 10.5901 55.1495 7.58008 58.6044 7.58008C60.2524 7.58008 61.5608 8.30631 62.243 9.11289H62.349V7.99727H65.2306V7.99418ZM62.5639 14.4592C62.5639 12.0456 60.9409 10.281 58.8754 10.281C56.7819 10.281 55.028 12.0456 55.028 14.4592C55.028 16.848 56.7819 18.5879 58.8754 18.5879C60.9409 18.5879 62.5639 16.848 62.5639 14.4592Z" fill="#4285F4"/>
<path d="M69.983 0.782227V20.8694H67.0234V0.782227H69.983Z" fill="#34A853"/>
<path d="M81.5145 16.6906L83.8697 18.2481C83.1095 19.3637 81.2778 21.2859 78.1126 21.2859C74.1874 21.2859 71.2559 18.2759 71.2559 14.4315C71.2559 10.3554 74.2123 7.57715 77.7731 7.57715C81.3588 7.57715 83.1127 10.4079 83.6859 11.9376L84.0005 12.7164L74.7637 16.5113C75.4709 17.8865 76.5706 18.588 78.1126 18.588C79.6578 18.588 80.7295 17.834 81.5145 16.6906ZM74.2652 14.2245L80.4397 11.6811C80.1002 10.8251 79.0784 10.2287 77.8759 10.2287C76.3338 10.2287 74.1874 11.5791 74.2652 14.2245Z" fill="#EA4335"/>
<path d="M10.8817 12.6519V9.74385H20.7603C20.8569 10.2507 20.9067 10.8502 20.9067 11.4992C20.9067 13.6809 20.3055 16.3788 18.3678 18.301C16.483 20.2479 14.0749 21.2863 10.8848 21.2863C4.97201 21.2863 0 16.5086 0 10.6431C0 4.77767 4.97201 0 10.8848 0C14.1559 0 16.4861 1.27322 18.2369 2.93273L16.1684 4.98472C14.9129 3.81657 13.212 2.90801 10.8817 2.90801C6.56392 2.90801 3.18694 6.35992 3.18694 10.6431C3.18694 14.9263 6.56392 18.3783 10.8817 18.3783C13.6824 18.3783 15.2774 17.2626 16.2992 16.249C17.1279 15.427 17.6731 14.2527 17.888 12.6488L10.8817 12.6519Z" fill="#4285F4"/>
</svg>
