<svg width="80" height="25" viewBox="0 0 80 25" fill="none" xmlns="http://www.w3.org/2000/svg">
<path fill-rule="evenodd" clip-rule="evenodd" d="M49.6308 19.3605C44.9819 22.8793 38.2436 24.7568 32.442 24.7568C24.3073 24.7568 16.9839 21.667 11.4435 16.5282C11.0082 16.1241 11.3982 15.5734 11.9206 15.8881C17.8998 19.4606 25.2928 21.6098 32.9295 21.6098C38.0799 21.6098 43.7457 20.5155 48.9552 18.2447C49.7422 17.9014 50.4004 18.774 49.6308 19.3605Z" fill="#FF9900"/>
<path fill-rule="evenodd" clip-rule="evenodd" d="M51.5637 17.0897C50.9717 16.3101 47.6356 16.7213 46.1382 16.9037C45.6821 16.9609 45.6124 16.5533 46.0233 16.26C48.6803 14.3397 53.0402 14.894 53.5486 15.5377C54.0571 16.1849 53.4163 20.6729 50.9195 22.815C50.5364 23.144 50.1708 22.9688 50.3414 22.5325C50.9021 21.0949 52.1592 17.8728 51.5637 17.0897Z" fill="#FF9900"/>
<path fill-rule="evenodd" clip-rule="evenodd" d="M46.2424 2.70301V0.8363C46.2424 0.55379 46.4514 0.364258 46.7021 0.364258H54.8403C55.1015 0.364258 55.3105 0.557366 55.3105 0.8363V2.43481C55.307 2.70301 55.0876 3.05347 54.6976 3.60776L50.4805 9.7908C52.0475 9.75146 53.7016 9.99106 55.1224 10.8136C55.4428 10.9995 55.5299 11.2713 55.5542 11.5395V13.5314C55.5542 13.8032 55.2617 14.1214 54.9553 13.9569C52.4515 12.6087 49.1258 12.4621 46.3574 13.9712C46.0753 14.1286 45.7793 13.8139 45.7793 13.5421V11.6504C45.7793 11.3464 45.7828 10.8279 46.0788 10.3665L50.9645 3.17148H46.7126C46.4514 3.17148 46.2424 2.98195 46.2424 2.70301Z" fill="#202124"/>
<path fill-rule="evenodd" clip-rule="evenodd" d="M16.5549 14.3506H14.079C13.8422 14.3327 13.6541 14.1504 13.6367 13.9179V0.868826C13.6367 0.607773 13.8491 0.400359 14.1138 0.400359H16.4226C16.6629 0.41108 16.8544 0.600618 16.8718 0.836639V2.54243H16.9171C17.5195 0.893856 18.6513 0.125 20.1766 0.125C21.7262 0.125 22.6943 0.893856 23.3907 2.54243C23.9897 0.893856 25.3513 0.125 26.8104 0.125C27.8481 0.125 28.9834 0.564857 29.6764 1.55185C30.4599 2.64971 30.2997 4.24464 30.2997 5.64289L30.2962 13.8786C30.2962 14.1396 30.0838 14.3506 29.8191 14.3506H27.3467C27.0994 14.3327 26.9009 14.1289 26.9009 13.8786V6.96246C26.9009 6.41174 26.9497 5.03853 26.8313 4.51642C26.6467 3.64028 26.093 3.39353 25.3757 3.39353C24.7767 3.39353 24.1499 3.80478 23.8957 4.46278C23.6415 5.12078 23.6659 6.22221 23.6659 6.96246V13.8786C23.6659 14.1396 23.4534 14.3506 23.1888 14.3506H20.7163C20.4656 14.3327 20.2706 14.1289 20.2706 13.8786L20.2671 6.96246C20.2671 5.50699 20.5004 3.36492 18.7418 3.36492C16.9624 3.36492 17.032 5.45335 17.032 6.96246V13.8786C17.032 14.1396 16.8196 14.3506 16.5549 14.3506" fill="#202124"/>
<path fill-rule="evenodd" clip-rule="evenodd" d="M62.3178 0.125C65.9917 0.125 67.9801 3.36493 67.9801 7.48457C67.9801 11.4647 65.7828 14.6224 62.3178 14.6224C58.7101 14.6224 56.7461 11.3825 56.7461 7.3451C56.7461 3.28268 58.7345 0.125 62.3178 0.125ZM62.3387 2.78918C60.514 2.78918 60.3991 5.34249 60.3991 6.93385C60.3991 8.52878 60.3747 11.9332 62.3178 11.9332C64.2366 11.9332 64.3272 9.18678 64.3272 7.51317C64.3272 6.41174 64.2819 5.09575 63.958 4.05153C63.6794 3.14321 63.1257 2.78918 62.3387 2.78918Z" fill="#202124"/>
<path fill-rule="evenodd" clip-rule="evenodd" d="M72.7428 14.3506H70.2773C70.0301 14.3327 69.8316 14.1289 69.8316 13.8786L69.8281 0.825911C69.849 0.586314 70.0545 0.400359 70.3052 0.400359H72.6001C72.816 0.41108 72.9936 0.561282 73.0423 0.765118V2.76057H73.0876C73.7806 0.976106 74.7521 0.125 76.462 0.125C77.5728 0.125 78.6558 0.536249 79.3523 1.66271C80 2.70693 80 4.46278 80 5.72513V13.9394C79.9722 14.1682 79.7667 14.3506 79.5229 14.3506H77.04C76.8137 14.3327 76.6256 14.1611 76.6013 13.9394V6.8516C76.6013 5.42474 76.7615 3.33632 75.0516 3.33632C74.4492 3.33632 73.8955 3.75114 73.6204 4.38053C73.2722 5.178 73.2269 5.97188 73.2269 6.8516V13.8786C73.2234 14.1396 73.0075 14.3506 72.7428 14.3506" fill="#202124"/>
<path fill-rule="evenodd" clip-rule="evenodd" d="M39.7545 8.1177C39.7545 9.10827 39.7789 9.93435 39.2913 10.8141C38.8978 11.5293 38.271 11.9691 37.578 11.9691C36.6273 11.9691 36.0702 11.2253 36.0702 10.1275C36.0702 7.96035 37.9611 7.56698 39.7545 7.56698V8.1177ZM42.2513 14.315C42.0877 14.4652 41.8509 14.476 41.6663 14.3758C40.8445 13.6749 40.6947 13.3495 40.2455 12.6808C38.8874 14.1041 37.9228 14.5296 36.1642 14.5296C34.0783 14.5296 32.459 13.21 32.459 10.5673C32.459 8.50391 33.5455 7.09852 35.0986 6.41191C36.4428 5.80397 38.3198 5.69669 39.7545 5.52862V5.19962C39.7545 4.59526 39.7998 3.88004 39.4515 3.35794C39.152 2.88947 38.574 2.69636 38.0621 2.69636C37.1184 2.69636 36.2791 3.19344 36.0737 4.22335C36.0319 4.45222 35.8682 4.67751 35.6418 4.68824L33.2425 4.42361C33.0405 4.37712 32.8142 4.20904 32.8734 3.89077C33.4236 0.901174 36.0562 0 38.4103 0C39.6152 0 41.1892 0.329 42.1399 1.26593C43.3448 2.421 43.2299 3.96229 43.2299 5.63948V9.60177C43.2299 10.7926 43.7104 11.3147 44.1631 11.9584C44.3198 12.1873 44.3547 12.4626 44.1527 12.6343C43.6477 13.067 42.7493 13.8716 42.2548 14.3222L42.2513 14.315" fill="#202124"/>
<path fill-rule="evenodd" clip-rule="evenodd" d="M7.2955 8.11769C7.2955 9.10827 7.31987 9.93434 6.83235 10.8141C6.43884 11.5293 5.8155 11.9691 5.11903 11.9691C4.16836 11.9691 3.61467 11.2253 3.61467 10.1274C3.61467 7.96035 5.50557 7.56698 7.2955 7.56698V8.11769ZM9.79233 14.315C9.62866 14.4652 9.39186 14.476 9.2073 14.3758C8.38547 13.6749 8.23921 13.3495 7.7865 12.6808C6.42839 14.104 5.46727 14.5296 3.7052 14.5296C1.62277 14.5296 0 13.21 0 10.5673C0 8.50391 1.08997 7.09851 2.63961 6.41191C3.98379 5.80397 5.86077 5.69669 7.2955 5.52862V5.19962C7.2955 4.59526 7.34077 3.88004 6.99601 3.35794C6.69305 2.88947 6.11498 2.69636 5.60656 2.69636C4.66285 2.69636 3.82012 3.19344 3.61467 4.22335C3.57288 4.45222 3.40921 4.67751 3.18634 4.68824L0.783526 4.42361C0.58155 4.37712 0.35868 4.20904 0.414397 3.89077C0.968089 0.901174 3.59725 0 5.95131 0C7.1562 0 8.73022 0.329 9.68089 1.26593C10.8858 2.421 10.7709 3.96229 10.7709 5.63947V9.60177C10.7709 10.7926 11.2514 11.3147 11.7041 11.9584C11.8643 12.1873 11.8991 12.4626 11.6972 12.6343C11.1922 13.067 10.2938 13.8716 9.79929 14.3222L9.79233 14.315" fill="#202124"/>
</svg>
