<svg width="110" height="24" viewBox="0 0 110 24" fill="none" xmlns="http://www.w3.org/2000/svg">
<path d="M38.8334 13.4514L38.1776 15.2981H38.123C38.0137 14.8817 37.8133 14.248 37.4855 13.4876L33.97 4.70685H30.5273V18.7017H32.8042V10.0658C32.8042 9.52268 32.8042 8.90712 32.786 8.14673C32.7678 7.76653 32.7314 7.47686 32.7131 7.2596H32.7678C32.8771 7.80274 33.0046 8.20104 33.0957 8.45451L37.3215 18.6655H38.9245L43.1139 8.36398C43.205 8.12862 43.296 7.6579 43.3871 7.2596H43.4418C43.3871 8.29156 43.3507 9.2149 43.3325 9.77614V18.6474H45.7551V4.67064H42.4399L38.8334 13.4514ZM48.0502 8.61745H50.4181V18.6474H48.0502V8.61745ZM49.2523 4.38096C48.8516 4.38096 48.5237 4.5258 48.2505 4.77926C47.9773 5.03273 47.8316 5.35861 47.8316 5.75691C47.8316 6.13711 47.9773 6.463 48.2505 6.71646C48.5237 6.96993 48.8516 7.09666 49.2523 7.09666C49.6531 7.09666 49.9992 6.95182 50.2542 6.71646C50.5274 6.463 50.6731 6.13711 50.6731 5.75691C50.6731 5.37672 50.5274 5.05083 50.2542 4.77926C50.0174 4.5258 49.6713 4.38096 49.2523 4.38096ZM58.8152 8.52692C58.3781 8.4364 57.9227 8.38209 57.4855 8.38209C56.4108 8.38209 55.4272 8.61745 54.6076 9.08817C53.7879 9.55889 53.1321 10.2107 52.7132 11.0254C52.276 11.8582 52.0575 12.8177 52.0575 13.9221C52.0575 14.8817 52.276 15.7326 52.695 16.5111C53.1139 17.2715 53.6968 17.887 54.4801 18.3034C55.2269 18.7198 56.1012 18.9371 57.0848 18.9371C58.2141 18.9371 59.1795 18.7017 59.9445 18.2672L59.9628 18.2491V16.0766L59.8717 16.149C59.5256 16.4024 59.1249 16.6197 58.7241 16.7464C58.3052 16.8913 57.9227 16.9637 57.5948 16.9637C56.6476 16.9637 55.9008 16.6921 55.3726 16.0947C54.8261 15.5153 54.5529 14.7187 54.5529 13.723C54.5529 12.691 54.8261 11.8763 55.3908 11.2788C55.9555 10.6814 56.7023 10.3736 57.613 10.3736C58.3781 10.3736 59.1613 10.6271 59.8717 11.134L59.9628 11.2064V8.90712L59.9445 8.88902C59.6349 8.76228 59.2888 8.61745 58.8152 8.52692ZM66.6294 8.45451C66.0466 8.45451 65.5001 8.63555 65.0265 9.01575C64.6258 9.34163 64.3526 9.81235 64.1158 10.3736H64.0976V8.61745H61.7296V18.6474H64.0976V13.5238C64.0976 12.6548 64.2797 11.9306 64.6804 11.4056C65.0812 10.8624 65.5912 10.5909 66.2105 10.5909C66.4291 10.5909 66.6477 10.6452 66.9209 10.6814C67.1759 10.7538 67.358 10.8262 67.4855 10.9167L67.5766 10.9892V8.63555L67.522 8.61745C67.358 8.50882 67.0302 8.45451 66.6294 8.45451ZM73.0776 8.40019C71.42 8.40019 70.0903 8.88902 69.1613 9.84856C68.2142 10.8081 67.7588 12.1297 67.7588 13.7954C67.7588 15.3524 68.2324 16.6197 69.1431 17.543C70.0539 18.4483 71.2925 18.919 72.8408 18.919C74.4619 18.919 75.7552 18.4302 76.6841 17.4525C77.6313 16.4749 78.0867 15.1713 78.0867 13.56C78.0867 11.9668 77.6495 10.6995 76.757 9.77614C75.9009 8.85281 74.644 8.40019 73.0776 8.40019ZM74.9719 16.1128C74.5348 16.674 73.8426 16.9456 72.9865 16.9456C72.1304 16.9456 71.4382 16.674 70.9464 16.0766C70.4546 15.5153 70.2178 14.7006 70.2178 13.6686C70.2178 12.6005 70.4728 11.7858 70.9464 11.2064C71.4382 10.6271 72.1122 10.3374 72.9683 10.3374C73.8062 10.3374 74.4619 10.609 74.9355 11.1702C75.4091 11.7314 75.6641 12.5462 75.6641 13.6143C75.6277 14.7006 75.4273 15.5515 74.9719 16.1128ZM83.369 12.7815C82.6222 12.4737 82.1486 12.2384 81.93 12.0392C81.7479 11.8582 81.6568 11.6047 81.6568 11.2788C81.6568 11.0073 81.7661 10.7357 82.0393 10.5546C82.3125 10.3736 82.6222 10.2831 83.0776 10.2831C83.4783 10.2831 83.8973 10.3555 84.298 10.4641C84.6987 10.5727 85.063 10.7357 85.3545 10.9529L85.4455 11.0254V8.8166L85.3909 8.79849C85.1177 8.68987 84.7534 8.58124 84.3162 8.49072C83.879 8.4183 83.4783 8.38209 83.1504 8.38209C82.0211 8.38209 81.0921 8.65366 80.3635 9.25111C79.6349 9.81235 79.2889 10.5727 79.2889 11.4599C79.2889 11.9306 79.3617 12.347 79.5257 12.691C79.6896 13.035 79.9264 13.3609 80.2543 13.6324C80.5821 13.8859 81.0557 14.1756 81.7115 14.4471C82.2579 14.6825 82.6768 14.8635 82.9319 15.0084C83.1869 15.1532 83.3508 15.3162 83.4783 15.4429C83.5694 15.5877 83.624 15.7688 83.624 16.0041C83.624 16.674 83.114 16.9999 82.0758 16.9999C81.675 16.9999 81.2561 16.9275 80.7643 16.7645C80.2725 16.6016 79.8171 16.3662 79.4346 16.0947L79.3435 16.0222V18.3215L79.3982 18.3396C79.7442 18.5026 80.1632 18.6112 80.6732 18.7379C81.1832 18.8285 81.6386 18.9009 82.0393 18.9009C83.2597 18.9009 84.2616 18.6293 84.9719 18.0319C85.7005 17.4525 86.0831 16.7102 86.0831 15.7507C86.0831 15.0808 85.9009 14.4834 85.5002 14.0307C84.9719 13.5962 84.3162 13.1436 83.369 12.7815ZM92.3308 8.40019C90.6732 8.40019 89.3435 8.88902 88.4146 9.84856C87.4856 10.8081 87.012 12.1297 87.012 13.7954C87.012 15.3524 87.4856 16.6197 88.3964 17.543C89.3071 18.4483 90.5457 18.919 92.094 18.919C93.7151 18.919 95.0084 18.4302 95.9374 17.4525C96.8845 16.4749 97.3399 15.1713 97.3399 13.56C97.3399 11.9668 96.9027 10.6995 96.0102 9.77614C95.1541 8.85281 93.8973 8.40019 92.3308 8.40019ZM94.2069 16.1128C93.7698 16.674 93.0776 16.9456 92.2215 16.9456C91.3472 16.9456 90.6732 16.674 90.1814 16.0766C89.6896 15.5153 89.4528 14.7006 89.4528 13.6686C89.4528 12.6005 89.7078 11.7858 90.1814 11.2064C90.6732 10.6271 91.3472 10.3374 92.2033 10.3374C93.023 10.3374 93.6969 10.609 94.1705 11.1702C94.6441 11.7314 94.8991 12.5462 94.8991 13.6143C94.8991 14.7006 94.6623 15.5515 94.2069 16.1128ZM109.999 10.5546V8.61745H107.613V5.64829L107.54 5.66639L105.282 6.33626L105.227 6.35437V8.61745H101.657V7.35012C101.657 6.77077 101.803 6.31816 102.058 6.02848C102.313 5.73881 102.695 5.59397 103.169 5.59397C103.497 5.59397 103.843 5.66639 104.225 5.82933L104.316 5.88365V3.83782L104.262 3.81972C103.934 3.71109 103.497 3.63867 102.932 3.63867C102.222 3.63867 101.602 3.80161 101.038 4.07318C100.473 4.38096 100.054 4.79737 99.7443 5.35861C99.4346 5.90175 99.2707 6.51731 99.2707 7.22339V8.61745H97.6131V10.5365H99.2707V18.6474H101.657V10.5546H105.227V15.7145C105.227 17.8327 106.229 18.9009 108.232 18.9009C108.56 18.9009 108.906 18.8466 109.234 18.7923C109.58 18.7198 109.835 18.6293 109.981 18.5569L109.999 18.5388V16.6016L109.908 16.674C109.763 16.7645 109.635 16.837 109.416 16.8913C109.234 16.9456 109.07 16.9637 108.943 16.9637C108.469 16.9637 108.141 16.8551 107.905 16.5835C107.686 16.33 107.577 15.9136 107.577 15.2981V10.5546H109.999Z" fill="#737373"/>
<path d="M0 0H11.1658V11.0981H0V0Z" fill="#F25022"/>
<path d="M12.332 0H23.4978V11.0981H12.332V0Z" fill="#7FBA00"/>
<path d="M0 12.257H11.1658V23.3551H0V12.257Z" fill="#00A4EF"/>
<path d="M12.332 12.257H23.4978V23.3551H12.332V12.257Z" fill="#FFB900"/>
</svg>
