<svg width="76" height="27" viewBox="0 0 76 27" fill="none" xmlns="http://www.w3.org/2000/svg">
<path fill-rule="evenodd" clip-rule="evenodd" d="M67.0516 12.2364L62.2048 20.6226L58.0696 20.639L67.0516 4.85441L76 20.639H71.7993L67.0516 12.2356V12.2364ZM54.0008 16.9883H58.6322L56.4819 20.639H50.4453L50.4617 16.1939V4.95146H54.018L54.0016 16.9883H54.0008ZM41.2988 4.95228C45.7148 4.96873 49.2875 8.47221 49.2711 12.803C49.2547 17.1182 45.6821 20.6226 41.2652 20.6226C36.8655 20.6061 33.2929 17.1026 33.2929 12.771C33.3093 8.45576 36.8819 4.95228 41.2988 4.95228ZM41.2824 16.9727C43.6472 16.9727 45.5486 15.1066 45.5486 12.803C45.5658 10.5003 43.6472 8.61778 41.2988 8.61778C38.9495 8.60133 37.0309 10.4838 37.0309 12.7874C37.0145 15.0902 38.9331 16.9727 41.2816 16.9727H41.2824ZM26.7101 11.5571C26.661 10.9074 26.4948 10.048 26.2467 9.22143C25.7361 7.5142 24.8486 5.9447 23.6501 4.6299C23.0212 3.94894 22.3105 3.31568 21.2509 2.56975C20.4431 2.1694 19.649 1.74205 18.8697 1.28843C18.3571 0.996472 17.7446 0.638722 16.9347 0.379661C15.9745 0.152019 14.9929 0.0271378 14.0065 0.00710789C13.0485 -0.0257887 12.0879 0.0564527 11.1618 0.234094C10.1858 0.39611 9.37509 0.65517 8.29994 0.915053C5.86796 1.96939 3.98297 3.55911 2.36164 5.6686C-3.29497 13.6008 1.81629 24.7132 11.2609 26.0266C12.8159 26.238 14.3709 26.1566 15.8424 25.8161L16.8848 25.5406C16.9175 25.5241 16.9675 25.5077 17.0002 25.5077L18.1916 25.0537C18.2572 25.0208 18.3071 25.0044 18.3734 24.9723L18.8697 24.7453C19.8218 24.2734 20.7155 23.691 21.5326 23.01C20.7888 23.6887 19.9799 24.2918 19.1178 24.8103L19.1669 24.8432C19.3331 24.7938 19.4813 24.7453 19.6467 24.7132C19.6467 24.7132 19.6467 24.9723 19.614 24.9238C19.3495 25.1187 19.763 24.9402 20.292 24.6639C20.8218 24.3884 21.3344 24.0471 21.797 23.6581C22.4759 23.0906 23.0712 22.4738 23.9146 21.4688C24.7744 19.9597 25.8504 18.6455 26.3466 16.8773C26.512 16.4069 26.6602 15.8558 26.7601 15.2876C26.8584 14.7201 26.9255 14.1362 26.9255 13.5358C26.9091 12.9355 26.8428 12.3186 26.7101 11.5571ZM14.47 24.8917C17.3646 24.4369 19.7958 22.8316 21.7807 20.6415C22.3268 19.8462 22.7567 19.1159 23.2857 18.3214C23.9473 16.6988 23.8982 15.2555 24.1128 14.234C24.3781 12.3836 23.7492 10.8918 23.2202 9.30203C22.4095 7.45242 21.3344 6.07405 19.4486 5.00327C14.6845 2.05081 8.20086 2.87733 5.10807 7.2904C5.09169 7.2904 5.00817 7.4039 4.84276 7.63088C5.05812 6.72294 5.60429 6.18755 6.14964 5.66778C7.77096 4.33794 9.65678 3.28278 11.8071 2.76466C14.2391 2.50478 16.653 2.76466 18.8197 3.819C22.0624 5.66778 24.2127 8.57255 24.758 12.0102V15.1905C24.08 20.398 19.614 24.3563 14.47 24.8917ZM26.363 13.0489C26.2467 5.42517 18.6879 0.282616 11.3272 1.32133C9.17693 1.85589 6.82765 2.92668 5.1572 4.41936C4.34653 4.95393 3.96659 5.94411 3.15593 6.73856C-0.086719 11.4921 0.47665 17.5755 4.51194 21.2747C5.02956 21.7887 5.58226 22.2658 6.16602 22.7024C2.79236 20.6735 1.27012 17.6068 0.741138 13.8771C0.741138 12.5465 1.00563 11.2322 1.28649 9.90239C3.17312 4.07806 9.1106 -0.15573 15.5787 0.915053C16.6538 1.17494 17.729 1.45044 18.8213 1.71033C20.1774 2.2449 21.517 3.04017 22.5921 4.09533C23.6673 5.14884 24.478 6.4795 25.2886 7.7929C25.834 8.84806 26.0993 10.1779 26.3638 11.2322C26.4129 11.8326 26.4129 12.4494 26.3638 13.0498L26.363 13.0489Z" fill="#202124"/>
<path fill-rule="evenodd" clip-rule="evenodd" d="M19.6479 13.1636C19.6479 16.4409 16.9023 19.1014 13.5115 19.1014C10.1214 19.1014 7.375 16.4409 7.375 13.1636C7.375 9.88707 10.1206 7.22656 13.5115 7.22656C16.9023 7.22656 19.6479 9.88707 19.6479 13.1644V13.1636Z" fill="white"/>
<path fill-rule="evenodd" clip-rule="evenodd" d="M19.6814 12.1578C19.5987 11.7039 19.466 11.3469 19.3342 10.8444C18.8044 9.74075 18.0273 8.88133 17.0013 8.15102C13.1642 5.60483 7.88751 8.05398 7.32577 12.4021C7.11124 14.1217 7.72292 15.7764 8.81444 17.0421C8.48363 16.7008 8.12006 16.3447 7.87195 15.9385L7.83919 15.9714C7.87195 16.0684 8.0046 16.1334 8.03736 16.2304C8.03736 16.2304 7.9047 16.2304 7.93827 16.214C7.83919 16.1013 7.9219 16.2798 8.07011 16.5224C8.20276 16.7658 8.36817 16.9936 8.56633 17.2042C8.84802 17.5126 9.14526 17.7881 9.64148 18.1614C10.3703 18.534 11.0147 19.0209 11.8581 19.2479C12.0898 19.3136 12.3543 19.3778 12.6196 19.4263C12.9005 19.4757 13.165 19.4921 13.4631 19.4921C13.7439 19.4921 14.042 19.4592 14.4056 19.3934C14.7805 19.3491 15.151 19.2734 15.5135 19.1673C16.323 18.9225 17.0687 18.5013 17.6973 17.9336C18.0118 17.6425 18.4589 17.2691 18.8052 16.7823C19.0869 16.2312 19.1197 15.9549 19.2523 15.7115C19.3842 15.468 19.5496 15.1925 19.6658 14.8192C19.7606 14.3762 19.816 13.9257 19.8313 13.4729C19.8149 13.0189 19.7821 12.5805 19.6822 12.1586L19.6814 12.1578ZM15.7444 9.14121C16.3069 9.46524 16.3896 9.51376 16.0916 9.30322C16.5223 9.40027 16.7868 9.6437 17.0513 9.88714C17.6965 10.6174 18.2255 11.4769 18.49 12.4662C18.639 13.5855 18.5227 14.7048 18.0437 15.695C17.1839 17.2033 15.8107 18.2091 14.173 18.4847C13.9912 18.4847 13.7931 18.4847 13.6104 18.5011C14.0739 18.4197 14.372 18.1277 15.2154 17.8193C16.1243 17.4953 17.1503 15.987 17.6474 15.1103C19.1025 12.7253 17.3821 10.5196 15.7444 9.14121ZM12.6352 18.5167C10.1213 18.2577 8.18557 16.1975 7.92108 13.8125C8.15199 15.1432 8.94628 16.1646 10.0214 17.0734C10.4022 17.3168 10.9639 17.6573 11.3447 17.9007C11.9899 18.1442 12.3699 18.4041 12.9988 18.5175H12.6352V18.5167ZM19.3997 14.1859C19.2851 14.6892 19.1688 15.1753 19.0525 15.6786C18.8044 16.2954 18.4408 16.9278 17.9446 17.4303C17.4484 17.9336 16.8195 18.3226 16.1915 18.696C15.6952 18.9551 15.0664 19.085 14.5538 19.2141C14.2557 19.247 13.9085 19.1171 13.6104 19.1015C17.283 19.0036 19.7969 15.5815 19.2515 12.1907C18.9862 11.2014 18.4572 10.3411 17.812 9.48169C17.5475 9.10831 17.0341 8.88133 16.6541 8.50795C14.3548 7.06461 11.3119 7.35657 9.57516 9.2547C9.33162 9.50413 9.10484 9.76954 8.89633 10.0492C9.82327 8.68641 11.3119 7.72995 13.0978 7.45362C13.7267 7.43717 14.372 7.55148 15 7.66498C17.7792 8.50795 19.8468 11.2014 19.3997 14.1867V14.1859Z" fill="#D7DF23"/>
</svg>
