<svg width="72" height="22" viewBox="0 0 72 22" fill="none" xmlns="http://www.w3.org/2000/svg">
<path d="M53.6094 20.8969L59.6213 14.2644L53.6094 7.63086H59.9526L62.9302 10.853L65.7975 7.63086H71.9195L65.936 14.237L72.0016 20.8969H65.6323L62.6817 17.6484L59.7589 20.8969H53.6094Z" fill="#FF6600"/>
<path d="M53.6085 4.65776H46.7995V7.63153H53.6085V12.1133H46.7995V16.2269H53.6085V20.8976H41.7949V0H53.6085V4.65776Z" fill="#FF6600"/>
<path d="M36.8114 0V8.55231H36.7565C35.6532 7.30716 34.2748 6.87447 32.6753 6.87447C29.399 6.87447 26.931 9.06133 26.0647 11.9526C25.0768 8.76681 22.5289 6.81477 18.7508 6.81477C15.6826 6.81477 13.2598 8.16701 11.9954 10.3705V7.63184H5.65338V4.65838H12.5743V0H0V20.8979H5.65338V12.1133H11.2883C11.1203 12.7586 11.0306 13.4495 11.0306 14.1786C11.0306 18.5378 14.4223 21.5965 18.7508 21.5965C22.3907 21.5965 24.7894 19.9187 26.0581 16.8597H21.2134C20.558 17.7786 20.0609 18.0516 18.7508 18.0516C17.2316 18.0516 15.9217 16.7501 15.9217 15.2074H25.7867C26.2145 18.6698 28.9615 21.6559 32.7311 21.6559C34.3572 21.6559 35.846 20.8705 36.7565 19.5444H36.8114V20.8973H41.7949V0H36.8114ZM16.0791 12.1757C16.3935 10.8484 17.4419 9.98088 18.7508 9.98088C20.1916 9.98088 21.1868 10.8216 21.4485 12.1757C21.5588 12.1757 16.0791 12.1757 16.0791 12.1757ZM33.7871 17.7158C31.95 17.7158 30.8085 16.0352 30.8085 14.2804C30.8085 12.4047 31.8015 10.601 33.7871 10.601C35.846 10.601 36.6663 12.4047 36.6663 14.2804C36.6659 16.0592 35.7968 17.7158 33.7871 17.7158Z" fill="#652C8F"/>
</svg>
