<svg width="114" height="27" viewBox="0 0 114 27" fill="none" xmlns="http://www.w3.org/2000/svg">
<path d="M40.5696 9.42405V10.9256H40.6159C41.1604 10.1217 42.0644 9.1749 44.0681 9.1749C45.627 9.1749 46.8228 9.96224 47.3353 11.1516H47.3816C47.8194 10.5503 48.3212 10.0951 48.8835 9.77287C49.5491 9.39083 50.2894 9.17157 51.2218 9.17157C53.3323 9.17157 55.2008 10.5336 55.2008 13.9687V20.4834H51.9835V14.4238C51.9835 12.683 51.35 11.6764 50.0331 11.6764C49.0686 11.6764 48.3675 12.2811 48.1005 13.0252C48.008 13.281 47.9653 13.6298 47.9653 13.9222V20.4867H44.7479V14.178C44.7479 12.6997 44.1393 11.6731 42.8403 11.6731C41.801 11.6731 41.1497 12.4372 40.8828 13.0917C40.7689 13.3707 40.7333 13.693 40.7333 13.9953V20.4834H37.5124V9.42405H40.5696ZM71.8074 9.42405V11.5103H71.8963C72.4871 9.91573 73.8894 9.1749 75.1208 9.1749C75.4305 9.1749 75.6013 9.19815 75.8504 9.24466V12.1415C75.555 12.1017 75.281 12.0618 74.8966 12.0618C73.5015 12.0618 72.5298 12.8193 72.2843 14.0052C72.2309 14.2511 72.2131 14.5168 72.2131 14.8225V20.4867H68.9103V9.42405H71.8074ZM80.3348 5.75977V9.24134H83.1251V12.0585H80.3348V16.2144C80.3348 17.5599 80.7014 18.211 81.7905 18.211C82.303 18.211 82.6802 18.1512 83.0077 18.0748L83.0504 20.4103C82.6126 20.5631 81.6802 20.7292 80.7335 20.7292C79.6195 20.7292 78.6906 20.3671 78.1247 19.8056C77.4769 19.1645 77.178 18.1147 77.178 16.6197V5.75977H80.3348ZM35.2702 20.4834H32.067V5.75977H35.2702V20.4834ZM26.7285 16.5334C26.7285 16.736 26.7107 16.9486 26.6502 17.1314C26.401 17.8988 25.5504 18.5466 24.4898 18.5466C23.6036 18.5466 22.8989 18.0782 22.8989 17.0848C22.8989 15.5666 24.6927 15.1447 26.732 15.1547V16.5334H26.7285ZM29.928 13.8856C29.928 11.3775 28.782 9.1749 24.9062 9.1749C22.9167 9.1749 21.3365 9.69647 20.4752 10.1616L21.1052 12.1748C21.8917 11.7097 23.1481 11.3276 24.3368 11.3276C26.3049 11.3243 26.6252 12.3674 26.6252 13.0352V13.1946C22.3366 13.188 19.6282 14.5733 19.6282 17.3971C19.6282 19.1213 21.0055 20.7358 23.4043 20.7358C24.8813 20.7358 26.1127 20.1877 26.853 19.3073H26.9242C26.9242 19.3073 27.4153 21.2175 30.1131 20.4867C29.9707 19.6894 29.9245 18.8422 29.9245 17.8223V13.8856H29.928ZM3.53769 5.75977C3.86869 7.31784 4.80827 11.8426 4.80827 11.8426C5.20333 13.7029 5.56635 15.653 5.8404 17.1945H5.89023C6.15715 15.5567 6.57712 14.0052 7.02556 12.0851L8.60934 5.75977H12.115L13.5956 12.2478C13.9835 14.0518 14.2931 15.4437 14.5387 17.1214H14.585C14.8519 15.4271 15.2007 13.9787 15.5815 12.1249L17.0051 5.75977H20.3684L16.2008 20.4834C13.5457 21.0249 12.5279 20.0282 12.1648 18.4469C11.8018 16.8623 11.09 13.8491 11.09 13.8491C10.7234 12.198 10.4387 11.0353 10.2394 9.341H10.1896C9.90483 11.0187 9.60587 12.1947 9.16455 13.8458L7.41706 20.4867C4.70506 20.9916 3.76547 20.2442 3.24585 18.2144C2.79741 16.4769 0 5.76309 0 5.76309H3.53769V5.75977ZM63.5717 16.5334C63.5717 16.736 63.5539 16.9486 63.4934 17.1314C63.2443 17.8988 62.3937 18.5466 61.3331 18.5466C60.4469 18.5466 59.7422 18.0782 59.7422 17.0848C59.7422 15.5666 61.5359 15.1447 63.5753 15.1547V16.5334H63.5717ZM66.7713 13.8856C66.7713 11.3775 65.6253 9.1749 61.7495 9.1749C59.76 9.1749 58.1798 9.69647 57.3185 10.1616L57.9484 12.1748C58.735 11.7097 59.9913 11.3276 61.18 11.3276C63.1446 11.3243 63.4685 12.3674 63.4685 13.0352V13.1946C59.1834 13.188 56.475 14.5733 56.475 17.3971C56.475 19.1213 57.8559 20.7358 60.2511 20.7358C61.7246 20.7358 62.9596 20.1877 63.6963 19.3073H63.771C63.771 19.3073 64.2622 21.2175 66.9599 20.4867C66.8176 19.6894 66.7713 18.8422 66.7713 17.8223V13.8856Z" fill="#041E42"/>
<path d="M96.1094 15.4126C96.4252 15.9503 96.4039 16.5504 96.0669 16.8245L90.2417 20.8173C89.635 21.1607 88.7269 20.7444 88.2125 19.8737C87.6945 18.9995 87.7867 18.0247 88.3934 17.6813L94.8429 14.7465C95.2474 14.5939 95.7937 14.8749 96.1094 15.4126ZM103.776 15.4126C104.095 14.8749 104.638 14.5974 105.042 14.7431L111.495 17.6778C112.102 18.0213 112.191 18.9961 111.676 19.8702C111.158 20.741 110.247 21.1538 109.644 20.8138L103.818 16.821C103.485 16.5504 103.46 15.9468 103.776 15.4126ZM99.9409 17.5772C100.576 17.5772 101.097 17.8964 101.168 18.3161L101.796 25.2472C101.796 25.934 100.977 26.496 99.9444 26.496C98.9156 26.496 98.0926 25.934 98.0926 25.2472L98.7169 18.3161C98.7879 17.8964 99.3094 17.5772 99.9409 17.5772ZM103.818 9.67489L109.644 5.67861C110.247 5.33518 111.158 5.74799 111.676 6.62218C112.191 7.49636 112.102 8.47115 111.495 8.81458L105.042 11.7528C104.638 11.8985 104.092 11.621 103.776 11.0833C103.46 10.5456 103.485 9.94547 103.818 9.67489ZM94.8429 11.7528L88.3934 8.81458C87.7903 8.47115 87.6981 7.49636 88.2125 6.62218C88.7269 5.74799 89.6386 5.33518 90.2417 5.67861L96.0669 9.67489C96.4039 9.942 96.4252 10.5456 96.1094 11.0833C95.7937 11.621 95.2474 11.8985 94.8429 11.7528ZM98.7169 8.17975L98.0926 1.24871C98.0926 0.561854 98.9121 -0.00012207 99.9444 -0.00012207C100.977 -0.00012207 101.796 0.561854 101.796 1.24871L101.168 8.17975C101.097 8.59603 100.576 8.91865 99.9409 8.91865C99.3094 8.91865 98.7879 8.59603 98.7169 8.17975ZM113.251 20.7895V20.6161H113.411C113.464 20.6161 113.5 20.6508 113.5 20.7028C113.5 20.7514 113.464 20.7895 113.411 20.7895H113.251ZM113.12 21.1052C113.12 21.1225 113.134 21.1399 113.156 21.1399H113.223C113.241 21.1399 113.259 21.1225 113.259 21.1052V20.9075H113.369L113.457 21.1156C113.464 21.1295 113.475 21.1399 113.489 21.1399H113.571C113.596 21.1399 113.613 21.1156 113.603 21.0913C113.571 21.0289 113.539 20.963 113.507 20.8971C113.56 20.8797 113.642 20.8277 113.642 20.7028C113.642 20.571 113.532 20.4947 113.422 20.4947H113.156C113.138 20.4947 113.12 20.512 113.12 20.5294V21.1052ZM112.833 20.8173C112.833 20.5363 113.067 20.3073 113.354 20.3073C113.642 20.3073 113.876 20.5328 113.876 20.8173C113.876 21.0983 113.645 21.3272 113.354 21.3272C113.063 21.3272 112.833 21.0983 112.833 20.8173ZM112.709 20.8173C112.709 21.1642 112.996 21.4486 113.354 21.4486C113.709 21.4486 114 21.1642 114 20.8173C114 20.4704 113.709 20.1859 113.354 20.1859C112.996 20.1859 112.709 20.4704 112.709 20.8173Z" fill="#FFC124"/>
</svg>
