<svg width="785" height="599" viewBox="0 0 785 599" fill="none" xmlns="http://www.w3.org/2000/svg">
<g clip-path="url(#clip0_1_211)">
<path d="M156.113 126.516V141.019C156.113 142.032 155.463 142.93 154.499 143.249C154.259 143.327 154.011 143.364 153.768 143.364C153.036 143.364 152.329 143.02 151.878 142.408L143.393 130.862L156.113 126.516Z" fill="#6044F0"/>
<path d="M109.401 71.8763C110.12 71.3666 111.065 71.2978 111.846 71.7075L182.22 108.451C183.052 108.885 183.543 109.774 183.474 110.709C183.402 111.647 182.78 112.447 181.895 112.751L162.331 119.436L120.667 83.8187L152.907 122.654L120.119 133.858C119.875 133.94 119.619 133.983 119.362 133.983C118.937 133.983 118.515 133.868 118.143 133.643C117.548 133.28 117.145 132.67 117.042 131.985L108.44 74.1341C108.312 73.2585 108.681 72.3892 109.401 71.8763Z" fill="#6044F0"/>
</g>
<path d="M252.628 402.301C211.924 449.197 229.859 485.33 212.528 487.032C211.622 487.114 210.825 487.114 210.029 487.005C196.571 485.165 201.597 454.084 158.696 413.146C131.56 387.2 80.0349 340.661 93.9873 316.637C105.935 296.099 141.228 341.073 159.904 313.315C173.472 293.134 119.97 285.831 128.594 264.579C138.152 241.049 170.616 273.008 175.395 249.972C180.146 226.964 155.702 194.702 176.054 189.266C176.384 189.184 176.686 189.129 176.988 189.074C196.598 184.845 203.382 215.377 206.87 235.613C210.413 256.15 210.111 262.63 216.346 261.037C222.58 259.445 240.763 233.855 253.726 248.956C266.69 264.085 227.689 299.669 231.452 326.054C235.215 352.468 263.064 308.455 272.815 332.864C278.418 346.866 272.87 379.018 252.628 402.301Z" fill="white"/>
<path d="M255.346 347.882L207.913 390.962L199.866 321.387L199.948 321.442L229.501 278.143L199.206 315.484L189.813 234.24L192.999 282.069L161.771 272.926L193.274 286.572L198.135 359.524L131.01 343.132L198.41 363.78L204.837 455.677L213.461 454.908L208.49 396.041L255.346 347.882Z" fill="#E1EAEA"/>
<path d="M268.281 536.756C268.281 536.756 284.788 562.4 403.136 563.444C521.485 564.487 545.572 546.695 598.992 547.739C652.413 548.782 657.631 581.236 732.008 567.645C806.384 554.054 785.95 521.573 762.384 517.399C732.831 512.155 286.353 511.633 286.353 511.633" fill="#F6F1F8"/>
<path d="M679.028 455.073H673.04C671.969 450.405 670.184 446.012 667.794 442.004L672.216 437.583C673.782 436.018 673.782 433.492 672.216 431.927L662.548 422.262C660.983 420.697 658.456 420.697 656.89 422.262L652.633 426.491C648.678 424.02 644.311 422.125 639.67 420.944V414.712C639.67 412.515 637.884 410.703 635.66 410.703H621.982C619.785 410.703 617.972 412.488 617.972 414.712V420.725C613.303 421.796 608.908 423.58 604.898 425.942L600.476 421.521C598.911 419.956 596.384 419.956 594.819 421.521L585.151 431.186C583.585 432.751 583.585 435.277 585.151 436.842L589.408 441.097C586.908 445.051 585.041 449.389 583.86 454.03H577.625C575.428 454.03 573.615 455.814 573.615 458.038V471.712C573.615 473.908 575.4 475.72 577.625 475.72H583.64C584.684 480.388 586.469 484.781 588.859 488.789L584.437 493.21C582.871 494.775 582.871 497.301 584.437 498.866L594.104 508.531C595.67 510.096 598.197 510.096 599.762 508.531L604.019 504.275C607.974 506.746 612.314 508.641 616.956 509.821V516.054C616.956 518.25 618.741 520.062 620.966 520.062H634.643C636.841 520.062 638.653 518.278 638.653 516.054V510.096C643.322 509.025 647.717 507.24 651.727 504.879L656.149 509.3C657.714 510.865 660.241 510.865 661.807 509.3L671.475 499.635C673.04 498.07 673.04 495.544 671.475 493.979L667.217 489.723C669.717 485.769 671.612 481.431 672.793 476.791H679.028C681.225 476.791 683.037 475.006 683.037 472.782V459.109C683.037 456.885 681.225 455.073 679.028 455.073ZM628.326 490.849C614.264 490.849 602.866 479.454 602.866 465.397C602.866 451.339 614.264 439.944 628.326 439.944C642.389 439.944 653.787 451.339 653.787 465.397C653.787 479.482 642.389 490.849 628.326 490.849Z" fill="white"/>
<path d="M9.06354 513.994C9.06354 513.994 -23.9224 579.176 39.6875 595.65C103.325 612.151 126.094 561.878 177.152 568.166C228.21 574.454 250.979 580.741 285.558 552.461C320.109 524.181 314.616 509.272 261.993 496.697C209.369 484.149 9.06354 513.994 9.06354 513.994Z" fill="#F6F1F8"/>
<path d="M298.798 504.577V463.392H207.668V416.881L280.699 249.067C285.67 237.645 296.958 230.231 309.427 230.231C326.731 230.231 340.765 244.262 340.765 261.559V423.718H375.866V428.303C375.866 447.687 360.156 463.392 340.765 463.392V546.503C317.585 546.503 298.798 527.723 298.798 504.577ZM249.8 423.745H298.798V283.25L249.8 423.745Z" fill="#6044F0"/>
<path d="M479.768 549.935C453.951 549.935 434.478 541.451 421.322 524.483C408.166 507.515 401.574 484.863 401.574 456.528V320.618C401.574 291.514 408.001 268.698 420.827 252.169C433.654 235.64 453.319 227.376 479.741 227.376C506.053 227.376 525.69 235.668 538.654 252.252C551.618 268.835 558.1 291.624 558.1 320.591V456.501C558.1 485.083 551.563 507.817 538.462 524.648C525.416 541.534 505.833 549.935 479.768 549.935ZM479.768 515.615C503.91 515.615 515.995 496.038 515.995 456.913V320.234C515.995 311.722 515.528 304.254 514.567 297.829C513.606 291.405 511.875 285.309 509.321 279.516C506.767 273.723 503.031 269.275 498.06 266.172C493.089 263.069 486.992 261.504 479.741 261.504C472.49 261.504 466.393 263.069 461.421 266.172C456.45 269.275 452.715 273.723 450.161 279.516C447.606 285.309 445.876 291.405 444.915 297.829C443.953 304.254 443.486 311.722 443.486 320.234V456.913C443.541 496.066 455.626 515.615 479.768 515.615Z" fill="#6044F0"/>
<path d="M682.49 504.577V463.392H629.839C608.58 463.392 591.332 446.15 591.332 424.898C591.332 419.599 592.431 414.382 594.518 409.523L664.363 249.067C669.334 237.645 680.622 230.231 693.091 230.231C710.395 230.231 724.43 244.262 724.43 261.559V423.718H759.53V428.303C759.53 447.687 743.82 463.392 724.43 463.392V546.503C701.276 546.503 682.49 527.723 682.49 504.577ZM633.491 423.745H682.49V283.25L633.491 423.745Z" fill="#6044F0"/>
<path d="M141.531 370.314L142.108 375.586L143.783 391.346C143.783 391.346 190.337 398.705 190.859 396.618C191.381 394.504 186.135 358.481 186.135 358.481C186.135 358.481 176.138 350.601 166.415 339.289L147.244 363.203L141.531 370.314Z" fill="#E8AD85"/>
<path d="M141.531 370.314L142.108 375.586C154.055 374.598 157.818 366.251 157.818 366.251L147.244 363.203L141.531 370.314Z" fill="#F2B891"/>
<path d="M258.177 489.696C258.012 491.755 257.847 493.869 257.655 496.01C257.655 496.01 255.869 496.23 252.766 496.505C248.701 496.889 242.302 497.356 234.749 497.521C208.437 498.18 167.76 495.461 158.971 473.469C145.761 440.329 125.711 400.325 141.531 370.342C141.531 370.342 155.181 386.239 168.639 383.164C185.778 379.21 186.904 355.351 186.904 355.351C186.904 355.351 256.144 343.627 259.165 455.183C259.467 465.561 259.165 477.038 258.177 489.696Z" fill="#F9FBFC"/>
<path d="M260.484 487.664C260.402 495.653 259.77 501.941 258.067 501.859C256.145 501.776 254.359 499.58 252.766 496.477C248.702 496.861 242.302 497.328 234.749 497.493C229.586 479.372 218.627 431.433 218.627 431.433L232.607 377.233C232.607 377.233 242.742 390.824 245.323 418.83C247.933 446.836 243.016 459.63 243.758 465.012C243.978 466.577 244.39 467.593 244.884 468.471C246.12 470.64 248.015 472.096 249.526 479.18C251.146 486.703 254.854 491.041 258.205 489.64C258.974 489.366 259.77 488.707 260.484 487.664Z" fill="#E1EAEA"/>
<path d="M119.148 513.226C119.148 513.226 115.083 529.507 113.985 529.59C112.913 529.699 93.2207 528.217 93.2207 528.217L97.368 509.08" fill="#F2B891"/>
<path d="M200.197 517.042C191.82 523.466 178.032 520.611 170.205 510.919C163.97 503.231 156.746 492.276 149.908 477.202C132.824 439.559 103.134 398.841 111.895 386.843C120.657 374.872 147.793 387.941 170.919 422.042C191.847 452.876 222.279 489.063 217.802 499.25C215.495 504.439 207.53 511.413 200.197 517.042Z" fill="#F2B891"/>
<path d="M115.851 381.297C149.935 375.751 98.1356 475.363 74.5978 505.84C51.0599 536.316 45.2922 529.535 67.237 473.057C89.1819 416.579 102.448 383.493 115.851 381.297Z" fill="#F2B891"/>
<path d="M75.9982 505.812C75.9982 505.812 70.2853 520.584 69.2142 520.529C68.1156 520.474 49.5215 516.493 49.5215 516.493L55.7012 499.937" fill="#F2B891"/>
<path d="M52.5156 505.675L60.0686 507.844L75.7239 512.319C75.7239 512.319 100.855 468.691 118.927 443.294C119.504 442.47 120.602 445.243 122.278 450.35C129.968 473.963 149.935 547.574 188.909 546.118C236.287 544.361 230.876 488.075 230.876 488.075C222.664 474.374 169.656 401.779 134.06 381.214C132.934 380.555 131.836 379.979 130.765 379.43C125.107 376.602 119.971 375.256 115.631 375.943C84.0185 380.748 52.5156 505.675 52.5156 505.675Z" fill="url(#paint0_linear_1_211)"/>
<path opacity="0.2" d="M60.0684 507.816L75.7236 512.292C75.7236 512.292 100.855 468.663 118.927 443.266C119.504 442.442 120.602 445.216 122.278 450.322C133.84 430.279 143.041 414.272 143.041 414.272L134.06 381.214C132.934 380.555 131.836 379.979 130.764 379.43C125.628 384.592 112.555 402.905 107.611 428.824C102.585 455.045 93.4114 470.75 87.8908 481.431C83.1393 490.656 76.9047 507.075 60.0684 507.816Z" fill="url(#paint1_linear_1_211)"/>
<path d="M226.701 517.289C218.324 523.714 204.536 520.859 196.708 511.166C190.474 503.479 183.25 492.523 176.411 477.45C159.328 439.807 129.638 399.089 138.399 387.09C147.161 375.119 174.297 388.189 197.423 422.29C218.351 453.123 248.783 489.311 244.306 499.497C242.026 504.687 234.034 511.661 226.701 517.289Z" fill="#F2B891"/>
<path d="M139.799 383.109C172.868 373.142 134.608 478.685 115.273 511.99C95.9371 545.295 92.2293 540.27 106.539 481.404C120.876 422.537 126.781 387.008 139.799 383.109Z" fill="#F2B891"/>
<path d="M95.2793 516.218L101.844 516.959L118.707 518.827C118.707 518.827 119.284 517.756 120.245 515.861C125.409 505.949 141.971 473.029 148.727 448.099C150.238 442.58 168.035 548.095 215.413 546.338C262.818 544.581 257.765 493.896 257.765 493.896C255.485 490.052 249.635 481.293 241.643 470.174C215.523 433.849 166.332 372.428 142.135 376.135C114.066 380.418 98.8773 487.636 95.8561 511.496C95.4716 514.543 95.2793 516.218 95.2793 516.218Z" fill="url(#paint2_linear_1_211)"/>
<path opacity="0.2" d="M94.9766 516.932C95.6083 517.317 118.35 521.408 118.679 521.27C119.009 521.133 120.41 516.795 120.245 515.861C125.408 505.95 141.97 473.029 148.726 448.099C150.237 442.58 168.035 548.095 215.412 546.338C262.818 544.581 257.764 493.896 257.764 493.896C255.485 490.052 249.634 481.294 241.642 470.174L238.923 466.302C238.923 466.302 248.041 489.256 245.981 507.377C243.894 525.609 214.863 537.662 198.988 523.467C183.113 509.272 171.083 480.717 164.739 463.831C158.394 446.973 154.22 434.425 149.358 434.755C144.524 435.084 130.819 478.191 124.31 492.551C120.217 501.557 116.784 509.574 110.385 513.857C107.995 515.45 105.221 516.52 101.815 516.905C99.783 517.207 97.5308 517.207 94.9766 516.932Z" fill="url(#paint3_linear_1_211)"/>
<path d="M149.797 482.145C149.797 482.145 151.747 482.282 155.098 482.447C172.868 483.325 229.776 485.22 237 474.265C245.569 461.25 243.015 430.279 243.015 430.279L239.609 430.472L209.177 432.146C209.177 432.146 213.407 453.068 211.649 456.5C209.891 459.96 150.017 469.213 150.017 469.213L149.797 482.145Z" fill="#F2B891"/>
<path d="M155.1 482.447C172.87 483.325 229.778 485.22 237.002 474.265C245.571 461.25 243.016 430.279 243.016 430.279L239.611 430.472C228.185 432.695 211.211 436.237 211.211 436.237C211.211 436.237 236.644 434.233 237.523 444.502C238.402 454.771 238.787 469.927 225.988 474.677C214.892 478.822 167.377 481.733 155.1 482.447Z" fill="#E8AD85"/>
<path d="M243.894 430.856L209.59 434.123L208.491 434.205C208.491 434.205 205.772 423.827 204.454 411.362C204.399 410.977 204.372 410.593 204.317 410.181C202.641 392.719 203.932 371.742 219.285 369.326C224.916 368.447 229.255 371.742 232.634 377.233C242.823 393.954 243.894 430.856 243.894 430.856Z" fill="#F9FBFC"/>
<path d="M209.562 434.123L208.463 434.206C208.463 434.206 205.744 423.827 204.426 411.362C204.426 411.115 204.453 410.867 204.453 410.675C205.277 413.091 208.738 423.745 209.562 434.123Z" fill="#E1EAEA"/>
<path d="M113.846 353.813C116.07 358.398 120.629 362.983 126.232 366.772C138.427 375.064 155.648 379.704 164.602 372.868C168.419 369.957 170.671 365.592 171.935 360.869C172.155 359.991 172.374 359.112 172.512 358.206C173.034 355.46 173.171 352.687 172.979 349.941C172.182 338.327 165.343 327.509 154.742 321.634C151.83 320.014 148.479 318.394 144.634 316.774C132.714 311.832 122.277 319.437 116.62 329.651C112.198 337.723 110.714 347.361 113.846 353.813Z" fill="#F2B891"/>
<path d="M113.844 353.813C116.069 358.398 120.628 362.984 126.231 366.773L126.588 366.828C126.588 366.828 114.229 351.397 117.744 343.517C121.26 335.637 132.026 340.14 144.551 345.768C154.96 350.463 168.336 356.367 172.538 358.206C173.06 355.46 173.197 352.687 173.005 349.942C161.167 345.439 127.385 333.44 116.646 329.651C112.196 337.724 110.713 347.361 113.844 353.813Z" fill="#F2B891"/>
<path d="M153.314 469.268C153.314 469.268 142.685 467.566 141.779 468.609C140.873 469.652 133.677 485.412 135.791 486.318C137.879 487.224 140.57 486.785 145.542 483.765C150.513 480.745 152.573 483.106 153.617 482.2C155.374 480.69 153.314 469.268 153.314 469.268Z" fill="#F2B891"/>
<path d="M92.6431 526.377C92.6431 526.377 90.9403 535.053 77.4548 544.251C63.9692 553.449 60.7009 551.143 60.2065 554.795C59.7121 558.446 114.066 558.062 114.066 558.062L115.439 527.805C115.412 527.805 92.6706 525.608 92.6431 526.377Z" fill="#181C2C"/>
<path d="M48.1209 515.202C48.1209 515.202 45.292 523.577 30.7079 530.908C16.1512 538.266 13.1849 535.548 12.2236 539.09C11.2624 542.659 65.177 549.413 65.177 549.413L70.2032 519.541C70.2032 519.568 48.2583 514.434 48.1209 515.202Z" fill="url(#paint4_linear_1_211)"/>
<path d="M243.811 427.451C243.811 427.451 208.024 430.032 207.694 430.691C207.365 431.35 207.886 436.21 208.903 436.484C209.919 436.759 243.729 434.041 244.141 433.711C244.553 433.409 244.608 427.918 243.811 427.451Z" fill="url(#paint5_linear_1_211)"/>
<path d="M94.9759 516.932C95.6076 517.316 118.349 521.407 118.679 521.27C119.008 521.133 120.409 516.795 120.244 515.861C120.244 515.806 120.217 515.751 120.189 515.724C120.189 515.724 115.602 514.845 110.384 513.912C103.902 512.758 96.4591 511.441 95.8548 511.55C95.8274 511.55 95.8274 511.55 95.8274 511.55C95.4703 511.935 94.3442 516.575 94.9759 516.932Z" fill="url(#paint6_linear_1_211)"/>
<path d="M77.0147 509.931C77.0147 509.931 53.4768 501.31 53.0648 501.639C52.6803 501.969 50.7303 506.471 51.307 506.938C51.8838 507.405 74.1857 515.367 74.5428 515.285C74.9273 515.203 77.3717 510.48 77.0147 509.931Z" fill="url(#paint7_linear_1_211)"/>
<path d="M138.29 354.444C138.126 354.444 137.961 354.362 137.879 354.197C137.769 353.95 137.851 353.676 138.071 353.566C141.861 351.616 141.394 346.619 141.394 346.564C141.367 346.317 141.559 346.07 141.806 346.043C142.053 346.015 142.3 346.207 142.328 346.454C142.355 346.674 142.877 352.138 138.51 354.389C138.428 354.417 138.373 354.444 138.29 354.444Z" fill="#896646"/>
<path d="M129.392 365.482C129.172 365.482 128.98 365.345 128.925 365.125C128.87 364.878 129.035 364.603 129.282 364.548C132.825 363.725 133.813 359.826 133.841 359.771C133.896 359.524 134.143 359.359 134.418 359.414C134.665 359.469 134.83 359.743 134.775 359.991C134.72 360.183 133.649 364.521 129.529 365.454C129.446 365.454 129.419 365.482 129.392 365.482Z" fill="#896646"/>
<path d="M150.54 370.314C150.293 370.314 150.073 370.122 150.073 369.875C149.826 365.235 153.918 363.834 153.973 363.834C154.221 363.752 154.495 363.889 154.578 364.137C154.66 364.384 154.523 364.658 154.275 364.741C154.138 364.795 150.842 365.921 151.035 369.847C151.035 370.095 150.842 370.314 150.54 370.314Z" fill="#896646"/>
<path d="M143.701 364.438C143.591 364.438 143.481 364.438 143.399 364.411C142.465 364.164 140.515 361.006 139.444 359.112C139.307 358.892 139.389 358.59 139.609 358.453C139.829 358.316 140.131 358.398 140.268 358.618C141.504 360.787 143.152 363.258 143.646 363.45C144.031 363.532 145.349 362.901 146.338 362.242C146.558 362.105 146.86 362.159 146.997 362.379C147.134 362.599 147.079 362.901 146.86 363.038C146.365 363.395 144.745 364.438 143.701 364.438Z" fill="#896646"/>
<path d="M113.241 354.801C116.564 360.155 121.151 363.725 126.589 366.992V366.827C126.589 366.827 126.589 366.827 126.562 366.8C125.765 366.059 110.549 352.001 116.317 340.085C122.222 327.867 175.752 360.677 201.79 365.592C227.442 370.452 237.797 339.124 238.071 338.218V338.19C202.586 339.947 140.816 278.033 110.989 312.079C98.9864 325.78 106.457 343.846 113.241 354.801Z" fill="#181C2C"/>
<path d="M260.485 487.663C260.402 495.653 259.771 501.941 258.068 501.858C256.145 501.776 254.36 499.579 252.767 496.477C249.141 489.53 246.313 477.916 244.417 474.127C243.099 471.519 243.786 469.707 244.884 468.499C246.12 467.126 247.851 466.549 247.851 466.549L259.166 455.182L259.331 455.018C259.331 455.018 260.677 473.88 260.485 487.663Z" fill="#F9FBFC"/>
<path d="M260.485 487.664C260.402 495.654 259.771 501.941 258.068 501.859C256.145 501.776 254.36 499.58 252.767 496.477C249.141 489.531 246.313 477.917 244.417 474.128C243.099 471.519 243.786 469.707 244.884 468.499C246.12 470.668 248.015 472.123 249.526 479.207C251.146 486.73 254.854 491.068 258.205 489.668C258.974 489.366 259.771 488.707 260.485 487.664Z" fill="#E1EAEA"/>
<path d="M126.56 366.825C126.56 366.825 126.56 366.825 126.535 366.8C126.535 366.825 126.56 366.85 126.56 366.825Z" fill="url(#paint8_linear_1_211)"/>
<path opacity="0.15" d="M126.536 366.8C125.74 366.059 110.524 352.001 116.292 340.085C122.197 327.867 175.727 360.677 201.764 365.592C227.417 370.452 237.771 339.124 238.046 338.218C237.441 339.041 222.171 359.771 202.67 357.959C182.785 356.119 123.487 322.705 114.946 338.575C108.766 350.134 119.944 361.473 126.536 366.8Z" fill="url(#paint9_linear_1_211)"/>
<path d="M202.771 53.1527L201.507 50.8505C201.826 49.966 202.084 49.1155 202.28 48.299C202.488 47.4757 202.575 46.6793 202.539 45.9096C202.502 45.14 202.287 44.3963 201.893 43.6784C201.573 43.0966 201.153 42.6989 200.633 42.4851C200.125 42.2645 199.58 42.314 198.999 42.6335C198.503 42.9054 198.186 43.2652 198.045 43.713C197.917 44.1541 197.975 44.5974 198.22 45.0429C198.308 45.2039 198.405 45.3518 198.512 45.4867C198.611 45.6093 198.727 45.747 198.859 45.8999L197.196 47.2722C197.033 47.1206 196.878 46.9559 196.732 46.7783C196.579 46.5882 196.452 46.4004 196.35 46.2147C195.806 45.2245 195.673 44.2501 195.952 43.2913C196.224 42.3202 196.924 41.5254 198.05 40.9068C199.226 40.2611 200.326 40.0923 201.349 40.4004C202.365 40.6961 203.207 41.4505 203.873 42.6635C204.329 43.4928 204.585 44.3266 204.643 45.1649C204.701 46.0032 204.62 46.8532 204.4 47.7148C204.181 48.5765 203.896 49.4659 203.546 50.3832L204.535 52.1841L202.771 53.1527ZM204.749 56.9726L203.627 54.9303L205.614 53.8394L206.736 55.8816L204.749 56.9726Z" fill="white"/>
<path d="M72.4564 23.5182L71.8301 20.8985C72.3862 20.1104 72.8718 19.3392 73.287 18.5849C73.7163 17.8271 74.0175 17.0628 74.1905 16.2919C74.3635 15.5209 74.3524 14.727 74.1571 13.9101C73.9988 13.2482 73.6914 12.7409 73.2349 12.3885C72.7925 12.0327 72.2402 11.9339 71.5783 12.0921C71.0149 12.2267 70.6029 12.4964 70.3423 12.9012C70.0958 13.3025 70.0332 13.7567 70.1544 14.2638C70.1982 14.4469 70.2544 14.6196 70.3229 14.7818C70.3882 14.93 70.4655 15.0977 70.5549 15.2848L68.5381 16.1911C68.4172 15.9967 68.3087 15.7918 68.2125 15.5766C68.113 15.3472 68.038 15.1269 67.9875 14.9157C67.7181 13.7889 67.8513 12.7893 68.3872 11.9167C68.9197 11.0301 69.8268 10.4336 71.1085 10.1273C72.4465 9.80749 73.5797 9.93867 74.5081 10.5208C75.433 11.0889 76.0605 12.063 76.3906 13.4433C76.6162 14.387 76.6439 15.2812 76.4736 16.1259C76.3033 16.9706 75.9928 17.7893 75.5421 18.5819C75.0913 19.3746 74.5685 20.177 73.9735 20.9892L74.4635 23.0385L72.4564 23.5182ZM73.3762 27.8321L72.8206 25.5082L75.0812 24.9679L75.6368 27.2919L73.3762 27.8321Z" fill="white"/>
<path d="M547.689 56.4862C547.717 56.0194 547.744 55.5527 547.744 55.0859C547.744 46.8764 541.097 40.2319 532.885 40.2319C526.239 40.2319 520.608 44.5975 518.713 50.6105C518.356 50.5831 518.026 50.5556 517.669 50.5556C515.033 50.5556 512.588 51.4891 510.693 53.0541C508.523 51.8186 506.024 51.1047 503.36 51.1047C496.274 51.1047 490.341 56.0744 488.858 62.7463C487.952 62.4992 444.227 62.7463 444.227 62.7463C438.844 62.7463 434.477 67.1119 434.477 72.4934C434.477 77.8748 438.844 82.2404 444.227 82.2404H479.52H483.722H489.435H492.511H493.06H512.286H514.099C514.209 82.158 514.291 82.0482 514.373 81.9659C514.511 82.0482 514.676 82.158 514.813 82.2404H522.256H530.798H537.362H550.079H557.494C560.46 79.5222 562.301 75.6509 562.301 71.3127C562.273 63.213 555.764 56.6235 547.689 56.4862Z" fill="white"/>
<path d="M157.516 143.606C158.367 144.622 159.273 145.665 160.235 146.681" stroke="#681D49" stroke-miterlimit="10"/>
<path d="M170.369 156.181C195.006 176.581 236.066 195.334 265.097 188.854C290.256 183.226 317.172 175.511 342.275 186.054C385.753 204.312 400.969 251.181 409.401 293.793C414.454 319.383 415.443 344.945 423.875 369.93C446.122 435.936 505.035 505.456 573.452 525.609C611.162 536.729 652.415 535.466 689.383 522.094C710.449 514.461 730.472 502.71 744.754 485.44C772.329 452.108 769.28 400.929 741.513 368.887" stroke="#681D49" stroke-miterlimit="10" stroke-dasharray="3.03 3.03"/>
<path d="M736.707 363.807C735.718 362.846 734.729 361.913 733.686 361.007" stroke="#681D49" stroke-miterlimit="10"/>
<path opacity="0.5" d="M213.296 408.644C213.296 408.644 213.268 408.973 213.268 409.577C213.159 409.248 213.076 409.055 213.076 409.055L213.296 408.644Z" fill="#F44E3E"/>
<defs>
<linearGradient id="paint0_linear_1_211" x1="231.06" y1="460.941" x2="52.5151" y2="460.941" gradientUnits="userSpaceOnUse">
<stop offset="0.0477" stop-color="#36F1B8"/>
<stop offset="1" stop-color="#6044F0"/>
</linearGradient>
<linearGradient id="paint1_linear_1_211" x1="143.032" y1="445.866" x2="60.073" y2="445.866" gradientUnits="userSpaceOnUse">
<stop offset="0.0477" stop-color="#681D49"/>
<stop offset="1" stop-color="#681D49"/>
</linearGradient>
<linearGradient id="paint2_linear_1_211" x1="257.917" y1="461.19" x2="95.276" y2="461.19" gradientUnits="userSpaceOnUse">
<stop offset="0.0477" stop-color="#36F1B8"/>
<stop offset="1" stop-color="#6044F0"/>
</linearGradient>
<linearGradient id="paint3_linear_1_211" x1="257.917" y1="490.586" x2="94.9807" y2="490.586" gradientUnits="userSpaceOnUse">
<stop offset="0.0477" stop-color="#681D49"/>
<stop offset="1" stop-color="#681D49"/>
</linearGradient>
<linearGradient id="paint4_linear_1_211" x1="38.851" y1="545.783" x2="43.3369" y2="514.343" gradientUnits="userSpaceOnUse">
<stop offset="0.0528" stop-color="#292929"/>
<stop offset="1" stop-color="#292929"/>
</linearGradient>
<linearGradient id="paint5_linear_1_211" x1="207.588" y1="431.988" x2="244.438" y2="431.988" gradientUnits="userSpaceOnUse">
<stop offset="0.0477" stop-color="#DE347F"/>
<stop offset="0.9724" stop-color="#DE347F"/>
</linearGradient>
<linearGradient id="paint6_linear_1_211" x1="94.7881" y1="516.4" x2="120.258" y2="516.4" gradientUnits="userSpaceOnUse">
<stop offset="0.0477" stop-color="#DE347F"/>
<stop offset="0.9724" stop-color="#DE347F"/>
</linearGradient>
<linearGradient id="paint7_linear_1_211" x1="51.217" y1="508.462" x2="77.0498" y2="508.462" gradientUnits="userSpaceOnUse">
<stop offset="0.0477" stop-color="#DE347F"/>
<stop offset="0.9724" stop-color="#DE347F"/>
</linearGradient>
<linearGradient id="paint8_linear_1_211" x1="126.553" y1="366.816" x2="126.549" y2="366.836" gradientUnits="userSpaceOnUse">
<stop stop-color="#DCEFFC"/>
<stop offset="1" stop-color="#F3FAFE"/>
</linearGradient>
<linearGradient id="paint9_linear_1_211" x1="176.208" y1="337.822" x2="170.364" y2="370.992" gradientUnits="userSpaceOnUse">
<stop offset="0.0528" stop-color="#005496"/>
<stop offset="1" stop-color="#14619E"/>
</linearGradient>
<clipPath id="clip0_1_211">
<rect width="75.0649" height="75.0502" fill="white" transform="matrix(-1 0 0 1 183.48 71.4414)"/>
</clipPath>
</defs>
</svg>
